<svg xmlns="http://www.w3.org/2000/svg" viewBox="0 0 100 100">
  <!-- Coffee cup body -->
  <path d="M20 30 L25 70 Q25 80 35 80 L65 80 Q75 80 75 70 L80 30 Z" 
        fill="#6F4E37" stroke="#4A3426" stroke-width="2"/>
  
  <!-- Coffee inside cup -->
  <ellipse cx="50" cy="32" rx="28" ry="8" fill="#3E2723"/>
  
  <!-- Handle -->
  <path d="M80 40 Q95 40 95 55 Q95 70 80 70" 
        fill="none" stroke="#6F4E37" stroke-width="6" stroke-linecap="round"/>
  
  <!-- Steam -->
  <path d="M35 15 Q35 20 40 20 Q40 15 40 10" 
        fill="none" stroke="#8B7355" stroke-width="2" stroke-linecap="round" opacity="0.7"/>
  <path d="M50 12 Q50 17 55 17 Q55 12 55 7" 
        fill="none" stroke="#8B7355" stroke-width="2" stroke-linecap="round" opacity="0.7"/>
  <path d="M65 15 Q65 20 70 20 Q70 15 70 10" 
        fill="none" stroke="#8B7355" stroke-width="2" stroke-linecap="round" opacity="0.7"/>
</svg>
